<svg width="60" height="60" viewBox="0 0 60 60" fill="none" xmlns="http://www.w3.org/2000/svg">
<path d="M30 0C46.5685 0 60 13.4315 60 30C60 46.5685 46.5685 60 30 60C13.4315 60 0 46.5685 0 30C0 13.4315 13.4315 0 30 0ZM30 6C16.7452 6 6 16.7452 6 30C6 43.2548 16.7452 54 30 54C43.2548 54 54 43.2548 54 30C54 16.7452 43.2548 6 30 6ZM30 41.25C32.0711 41.25 33.75 42.9289 33.75 45C33.75 47.0711 32.0711 48.75 30 48.75C27.9289 48.75 26.25 47.0711 26.25 45C26.25 42.9289 27.9289 41.25 30 41.25ZM25.0586 14.1172C28.1694 12.5618 31.8306 12.5618 34.9414 14.1172L35.2734 14.2822C37.1966 15.2438 38.7562 16.8034 39.7178 18.7266C41.4922 22.2753 40.592 26.5791 37.5439 29.1191L34.0791 32.0059C33.3953 32.5758 33 33.4204 33 34.3105V34.5C33 36.1569 31.6569 37.5 30 37.5C28.3431 37.5 27 36.1569 27 34.5V34.3105C27 31.6396 28.1864 29.1064 30.2383 27.3965L33.7021 24.5098C34.6112 23.7522 34.8798 22.4686 34.3506 21.4102C33.9696 20.6481 33.3519 20.0304 32.5898 19.6494L32.2588 19.4834C30.8371 18.7726 29.1629 18.7726 27.7412 19.4834C26.7642 19.972 25.972 20.7642 25.4834 21.7412L25.1836 22.3418C24.4426 23.8237 22.6401 24.4246 21.1582 23.6836C19.6763 22.9426 19.0754 21.1401 19.8164 19.6582L20.1172 19.0586C21.1864 16.9201 22.9201 15.1864 25.0586 14.1172Z" fill="#F7F8F9"/>
</svg>
