<svg width="24" height="24" viewBox="0 0 24 24" fill="none" xmlns="http://www.w3.org/2000/svg">
<path d="M19 4.31396H8.72461V9.99951H13.1729C14.5062 9.99951 15.6658 10.1426 16.6514 10.4282C17.637 10.7139 18.4492 11.1234 19.0869 11.6567C19.744 12.1901 20.2269 12.8289 20.5361 13.5718C20.8452 14.2954 20.9999 15.1046 21 15.9995C21 16.8947 20.8454 17.7147 20.5361 18.4575C20.2269 19.1812 19.7439 19.81 19.0869 20.3433C18.4492 20.8766 17.637 21.2861 16.6514 21.5718C15.6658 21.8574 14.5062 21.9995 13.1729 21.9995H6V16.4995L3 16.5005V14.3228H12.0283V16.5005L8.72461 16.4995V19.6567H13.0283C14.9607 19.6567 16.3139 19.3429 17.0869 18.7144C17.8791 18.0667 18.2754 17.1613 18.2754 15.9995C18.2753 14.8379 17.8791 13.9424 17.0869 13.314C16.3139 12.6664 14.9607 12.3433 13.0283 12.3433L3 12.3423V9.99951H6V1.99951H19V4.31396Z" fill="#1937FF"/>
</svg>
