<svg width="24" height="24" viewBox="0 0 24 24" fill="none" xmlns="http://www.w3.org/2000/svg">
<path d="M5.64453 3.10516C6.31473 2.81655 7.04601 3.14902 7.47754 3.73798L9.66992 6.73114C10.257 7.53273 10.1716 8.6434 9.46973 9.34637L7.79004 11.029C7.37396 11.4456 7.16544 12.0299 7.38867 12.5749C7.65317 13.2196 8.1888 14.1657 9.26758 15.2458C10.3465 16.326 11.2915 16.8628 11.9355 17.1276C12.4119 17.3234 12.9184 17.1877 13.3164 16.8718L13.4805 16.7253L15.1602 15.0436C15.8622 14.3409 16.9718 14.256 17.7725 14.8434L20.7627 17.0388C21.3508 17.4707 21.6824 18.2019 21.3945 18.8727L21.2803 19.1169C20.6666 20.3347 19.3721 21.4997 17.083 21.4997C14.0651 21.4996 11.2373 19.8486 8.41016 17.2106L7.84473 16.6706C4.89735 13.6508 3 10.6227 3 7.40009C3.00016 4.95594 4.34491 3.66504 5.64453 3.10516ZM16.5781 16.4548C16.5781 16.4548 16.5767 16.4553 16.5752 16.4567L14.8955 18.1393C14.6604 18.3747 14.3691 18.597 14.0381 18.78C15.0842 19.2581 16.0914 19.4997 17.083 19.4997C17.9231 19.4997 18.4535 19.2778 18.7949 19.0378C19.018 18.8808 19.1982 18.6872 19.3408 18.4763L16.5889 16.4557C16.5872 16.4546 16.586 16.4538 16.5859 16.4538C16.5854 16.4537 16.5838 16.4537 16.582 16.4538L16.5781 16.4548ZM6.03711 5.1579C5.81917 5.30284 5.62123 5.48574 5.46191 5.70868C5.22205 6.04451 5.00008 6.56595 5 7.40009C5 8.39798 5.24692 9.41578 5.7334 10.4733C5.91607 10.142 6.1396 9.8506 6.375 9.61493L8.05469 7.93329C8.05629 7.93169 8.05749 7.93055 8.05762 7.93036V7.92938C8.05796 7.92835 8.05839 7.92613 8.05859 7.92352V7.91669C8.05819 7.91612 8.05689 7.91445 8.05566 7.91278L6.03711 5.1579ZM22.4775 2.4704C22.7703 2.2069 23.2185 2.21824 23.4971 2.49677C23.7781 2.77785 23.7872 3.23106 23.5176 3.52313L18.7549 8.68231C18.3518 9.11899 17.659 9.1099 17.2676 8.66278L14.9756 6.04364C14.7081 5.73761 14.7234 5.27644 15.0107 4.98895C15.2891 4.7106 15.7327 4.6864 16.04 4.93231L18 6.49969L22.4775 2.4704Z" fill="white"/>
</svg>
