<svg width="24" height="24" viewBox="0 0 24 24" fill="none" xmlns="http://www.w3.org/2000/svg">
<path d="M12 2C17.5228 2 22 6.47715 22 12C22 17.5228 17.5228 22 12 22C6.47715 22 2 17.5228 2 12C2 6.47715 6.47715 2 12 2ZM12 4C7.58172 4 4 7.58172 4 12C4 16.4183 7.58172 20 12 20C16.4183 20 20 16.4183 20 12C20 7.58172 16.4183 4 12 4ZM13 6C15.2091 6 17 7.79086 17 10C17 12.2091 15.2091 14 13 14H11V15H13.5C13.7761 15 14 15.2239 14 15.5C14 15.7761 13.7761 16 13.5 16H11V17C11 17.5523 10.5523 18 10 18C9.44772 18 9 17.5523 9 17V16H7.5C7.22386 16 7 15.7761 7 15.5C7 15.2239 7.22386 15 7.5 15H9V14H7.5C7.22386 14 7 13.7761 7 13.5C7 13.2239 7.22386 13 7.5 13H9V7.59961C9.00021 6.71626 9.71626 6.00021 10.5996 6H13ZM11 12H13C14.1046 12 15 11.1046 15 10C15 8.89543 14.1046 8 13 8H11V12Z" fill="white"/>
</svg>
