<svg width="24" height="24" viewBox="0 0 24 24" fill="none" xmlns="http://www.w3.org/2000/svg">
<g clip-path="url(#clip0_1_5416)">
<path d="M22.4781 16.4705C22.7709 16.207 23.2182 16.2184 23.4967 16.4968C23.7778 16.7779 23.7868 17.2311 23.5172 17.5232L18.7545 22.6824C18.3514 23.119 17.6586 23.1101 17.2672 22.6629L15.7545 20.9334V20.9343L14.9752 20.0437C14.9435 20.0074 14.916 19.9687 14.8922 19.9285C14.8827 19.9125 14.876 19.8952 14.8678 19.8787C14.8559 19.8548 14.8439 19.8312 14.8346 19.8064C14.8285 19.79 14.824 19.7733 14.819 19.7566C14.8109 19.7295 14.8045 19.7022 14.7994 19.6746C14.7962 19.6567 14.7936 19.6389 14.7916 19.6209C14.7888 19.5958 14.7871 19.5708 14.7867 19.5457C14.7865 19.5264 14.7856 19.5073 14.7867 19.4881C14.7886 19.4572 14.7939 19.4268 14.7994 19.3963C14.8018 19.3836 14.8033 19.3708 14.8063 19.3582C14.8145 19.3233 14.8254 19.2893 14.8385 19.2556C14.842 19.2467 14.8435 19.2371 14.8473 19.2283C14.8642 19.1891 14.8852 19.1514 14.9088 19.115L14.9098 19.114C14.9386 19.0697 14.9726 19.0278 15.0114 18.989C15.1908 18.8096 15.4385 18.7362 15.6744 18.7722C15.6811 18.7732 15.6874 18.776 15.694 18.7771C15.7295 18.7835 15.7648 18.7911 15.7994 18.8025C15.8205 18.8093 15.8404 18.8192 15.861 18.8279C15.8801 18.8361 15.9 18.8425 15.9186 18.8523L15.9264 18.8562C15.9657 18.8775 16.0036 18.9026 16.0397 18.9314L17.4069 20.0252H17.4059L17.9996 20.4998L20.2906 18.4382L20.2858 18.4412L21.5494 17.3035C21.5481 17.3056 21.5459 17.3072 21.5446 17.3093L22.4781 16.4705ZM10.5543 1.79469C11.4542 1.29996 12.545 1.3001 13.4449 1.79469L20.4449 5.64528C21.4034 6.17243 21.9994 7.17938 21.9996 8.27321V13.9304C21.6182 14.0504 21.2531 14.2412 20.9274 14.5066L20.8053 14.6111L19.9996 15.3357V8.74001L17.4996 10.115V12.9998C17.4995 13.5519 17.0518 13.9998 16.4996 13.9998C15.9476 13.9996 15.4998 13.5518 15.4996 12.9998V11.2156L13.9274 12.0808C13.6312 12.2437 13.3192 12.3665 12.9996 12.449V17.4939C12.0225 18.7161 12.0414 20.4865 13.0944 21.6902L13.5114 22.1677L13.4449 22.2048L13.274 22.2918C12.467 22.6705 11.5322 22.6706 10.7252 22.2918L10.5543 22.2048L3.55432 18.3543C2.65595 17.86 2.07555 16.9442 2.00647 15.9304L1.99963 15.7263V8.27321C1.99985 7.24787 2.52356 6.29881 3.37854 5.74977L3.55432 5.64528L10.5543 1.79469ZM3.99963 15.7263C3.99977 16.0907 4.19899 16.4266 4.51819 16.6023L10.9996 20.1658V12.449C10.6802 12.3665 10.368 12.2437 10.0719 12.0808L3.99963 8.74001V15.7263ZM5.11194 7.07008L11.0358 10.3279C11.6359 10.6579 12.3634 10.6579 12.9635 10.3279L14.4508 9.50954L7.58264 5.71169L5.11194 7.07008ZM12.4811 3.54762C12.1812 3.38298 11.818 3.38284 11.5182 3.54762L9.65491 4.57204L16.5231 8.36989L18.8864 7.07008L12.4811 3.54762Z" fill="#1937FF"/>
</g>
<defs>
<clipPath id="clip0_1_5416">
<rect width="24" height="24" fill="white"/>
</clipPath>
</defs>
</svg>
