<svg width="24" height="24" viewBox="0 0 24 24" fill="none" xmlns="http://www.w3.org/2000/svg">
<path d="M15 4C17.2091 4 19 5.79086 19 8V11.0781C19.1512 11.1323 19.2993 11.1874 19.4434 11.2451C20.4179 11.6356 21.274 12.1264 21.9023 12.7217C22.5327 13.319 23 14.0909 23 15.0068C23 16.2365 22.1707 17.1936 21.1826 17.8652C20.1694 18.5539 18.7912 19.0893 17.2256 19.4521C16.6877 19.5767 16.1501 19.2411 16.0254 18.7031C15.901 18.1652 16.2365 17.6286 16.7744 17.5039C16.8507 17.4862 16.9255 17.4657 17 17.4473V8C17 6.89543 16.1046 6 15 6H9C7.89543 6 7 6.89543 7 8V17.4453C8.03474 17.7006 9.21784 17.8851 10.5 17.9658V16.207C10.5001 15.7617 11.0385 15.5386 11.3535 15.8535L13.793 18.293C14.1834 18.6835 14.1834 19.3165 13.793 19.707L11.3535 22.1465C11.0385 22.4614 10.5001 22.2384 10.5 21.793V19.9688C8.09373 19.8295 5.91131 19.3602 4.26074 18.6455C3.36579 18.2579 2.58005 17.7778 2.00293 17.1992C1.42188 16.6166 1 15.8756 1 15.0068C1.00001 14.0909 1.46729 13.319 2.09766 12.7217C2.72604 12.1264 3.58208 11.6356 4.55664 11.2451C4.7007 11.1874 4.84876 11.1323 5 11.0781V8C5 5.79086 6.79086 4 9 4H15ZM5 13.2275C4.31804 13.5283 3.80962 13.8546 3.47363 14.1729C3.09221 14.5342 3.00001 14.8165 3 15.0068C3 15.1883 3.08327 15.4506 3.41895 15.7871C3.75001 16.1189 4.27459 16.4642 5 16.7842V13.2275ZM19 16.7842C19.4097 16.6034 19.7646 16.4117 20.0586 16.2119C20.8233 15.6921 21 15.2603 21 15.0068C21 14.8165 20.9078 14.5342 20.5264 14.1729C20.1904 13.8546 19.682 13.5283 19 13.2275V16.7842ZM13 7C13.5523 7 14 7.44772 14 8C14 8.55228 13.5523 9 13 9H11C10.4477 9 10 8.55228 10 8C10 7.44772 10.4477 7 11 7H13Z" fill="#1937FF"/>
</svg>
