<svg width="24" height="24" viewBox="0 0 24 24" fill="none" xmlns="http://www.w3.org/2000/svg">
<path d="M11.9999 5C13.1093 5 14.0117 5.90234 14.0117 7.01172C14.0117 8.11719 13.1093 9.01953 11.9999 9.01953C10.8906 9.01953 9.98821 8.11719 9.98821 7.01172C9.98821 5.90234 10.8906 5 11.9999 5ZM11.9999 12.0078C14.7577 12.0078 16.996 9.76953 16.996 7.01172C16.996 4.25391 14.7577 2.01172 11.9999 2.01172C9.24212 2.01172 6.99993 4.25391 6.99993 7.01172C6.99993 9.76562 9.24212 12.0078 11.9999 12.0078ZM13.9648 15.8281C14.9531 15.6055 15.9062 15.2148 16.7851 14.6602C17.4492 14.2422 17.6484 13.3633 17.2304 12.6992C16.8124 12.0352 15.9335 11.832 15.2695 12.2539C13.2773 13.5039 10.7187 13.5039 8.7304 12.2539C8.06243 11.832 7.18353 12.0352 6.76556 12.6992C6.34759 13.3633 6.54681 14.2422 7.21478 14.6602C8.08978 15.2148 9.04681 15.6055 10.0351 15.8281L7.31634 18.5469C6.76165 19.1016 6.76165 20.0039 7.32024 20.5586C7.59759 20.8359 7.96087 20.9766 8.32415 20.9766C8.68743 20.9766 9.05462 20.8359 9.33196 20.5586L11.9999 17.8906L14.6718 20.5586C15.2265 21.1133 16.1249 21.1133 16.6835 20.5586C17.2382 20.0039 17.2382 19.1016 16.6835 18.5469L13.9648 15.8281Z" fill="#423E38" fill-opacity="0.65"/>
</svg>
