<svg width="24" height="24" viewBox="0 0 24 24" fill="none" xmlns="http://www.w3.org/2000/svg">
<path d="M12.0049 2C17.5305 2 22.0106 6.47931 22.0107 12.0049C22.0107 17.5306 17.5306 22.0107 12.0049 22.0107C6.47931 22.0106 2 17.5305 2 12.0049C2.00015 6.47941 6.47941 2.00015 12.0049 2ZM16.7764 8.50586C16.8622 7.52988 15.8363 7.92233 15.8223 7.92773C12.6703 9.22898 9.11335 10.6175 6.22168 11.9766C5.03643 12.4103 5.73047 12.8438 5.73047 12.8438L7.60938 13.4219C8.47688 13.6821 8.94043 13.3936 8.94043 13.3936L12.9883 10.6465C14.4339 9.66346 14.0872 10.4723 13.7402 10.8193L10.7041 13.7109C10.2415 14.1157 10.4724 14.4632 10.6748 14.6367C11.3977 15.2729 13.4507 16.5744 13.5664 16.6611C13.7111 16.7769 14.4922 17.2973 15.0127 17.1816C15.5331 17.0659 15.5908 16.4004 15.5908 16.4004L16.2852 11.8604C16.4876 10.3279 16.7475 8.91067 16.7764 8.50586Z" fill="#423E38" fill-opacity="0.65"/>
</svg>
